<svg width="256" height="256" viewBox="0 0 256 256" fill="none" xmlns="http://www.w3.org/2000/svg">
<path d="M190 18H66C39.4903 18 18 39.4903 18 66V190C18 216.51 39.4903 238 66 238H190C216.51 238 238 216.51 238 190V66C238 39.4903 216.51 18 190 18Z" fill="#111111"/>
<path d="M180 8H56C29.4903 8 8 29.4903 8 56V180C8 206.51 29.4903 228 56 228H180C206.51 228 228 206.51 228 180V56C228 29.4903 206.51 8 180 8Z" fill="white" stroke="#111111" stroke-width="8"/>
<path d="M170.273 81.5176H101.24C90.3463 81.5176 81.5156 90.3483 81.5156 101.242V170.275C81.5156 181.169 90.3463 189.999 101.24 189.999H170.273C181.167 189.999 189.997 181.169 189.997 170.275V101.242C189.997 90.3483 181.167 81.5176 170.273 81.5176Z" stroke="black" stroke-width="14.793" stroke-linecap="round" stroke-linejoin="round"/>
<path d="M57.364 148.057L47.216 79.7724C45.6184 68.9933 53.0543 58.9637 63.8236 57.3661L132.108 47.2181C141.309 45.8473 149.958 51.0643 153.291 59.3286" stroke="black" stroke-width="14.793" stroke-linecap="round" stroke-linejoin="round"/>
</svg>
