<svg width="256" height="256" viewBox="0 0 256 256" fill="none" xmlns="http://www.w3.org/2000/svg">
<path d="M190 18H66C39.4903 18 18 39.4903 18 66V190C18 216.51 39.4903 238 66 238H190C216.51 238 238 216.51 238 190V66C238 39.4903 216.51 18 190 18Z" fill="#3C6E71"/>
<path d="M180 8H56C29.4903 8 8 29.4903 8 56V180C8 206.51 29.4903 228 56 228H180C206.51 228 228 206.51 228 180V56C228 29.4903 206.51 8 180 8Z" fill="#3C6E71" stroke="#3C6E71" stroke-width="8"/>
<path d="M148.894 89.9316H103.033C95.7962 89.9316 89.9297 95.7982 89.9297 103.035V148.896C89.9297 156.133 95.7962 161.999 103.033 161.999H148.894C156.131 161.999 161.997 156.133 161.997 148.896V103.035C161.997 95.7982 156.131 89.9316 148.894 89.9316Z" stroke="#3C6E71" stroke-width="9.82743" stroke-linecap="round" stroke-linejoin="round"/>
<path d="M73.8851 134.135L67.1435 88.7718C66.0822 81.6109 71.0221 74.9479 78.1764 73.8865L123.54 67.1449C129.652 66.2342 135.398 69.7 137.613 75.1903" stroke="#3C6E71" stroke-width="9.82743" stroke-linecap="round" stroke-linejoin="round"/>
</svg>
